<?xml version="1.0" standalone="no"?>
<!DOCTYPE svg PUBLIC "-//W3C//DTD SVG 20010904//EN"
 "http://www.w3.org/TR/2001/REC-SVG-20010904/DTD/svg10.dtd">
<svg version="1.0" xmlns="http://www.w3.org/2000/svg"
 width="400.000000pt" height="400.000000pt" viewBox="0 0 400.000000 400.000000"
 preserveAspectRatio="xMidYMid meet">
<metadata>
Created by potrace 1.14, written by Peter Selinger 2001-2017
</metadata>
<g transform="translate(0.000000,400.000000) scale(0.100000,-0.100000)"
fill="#000000" stroke="none">
<path d="M0 2000 l0 -2000 2000 0 2000 0 0 585 0 586 -50 -7 c-43 -6 -50 -4
-50 11 0 11 5 15 15 11 9 -3 15 0 15 8 0 8 -10 11 -30 8 -20 -3 -30 -10 -30
-22 0 -20 -19 -30 -60 -30 -16 0 -32 -4 -35 -10 -3 -5 -32 -10 -63 -10 -100 0
-102 -2 -103 -84 0 -39 -4 -91 -7 -116 -7 -42 -9 -45 -44 -51 -20 -3 -35 -2
-32 3 3 4 13 8 23 8 30 0 37 20 40 125 2 55 5 103 8 107 2 4 1 25 -3 45 -6 32
-8 35 -16 18 -6 -14 -6 -11 -2 11 9 52 -24 216 -47 232 -23 16 -27 57 -4 48
11 -4 15 2 15 24 l0 30 -87 -65 c-76 -56 -90 -62 -100 -49 -7 10 -17 13 -25 8
-7 -4 -2 5 11 20 14 14 53 40 87 56 34 16 65 34 69 40 3 5 15 10 26 10 18 0
20 6 18 56 -3 63 5 61 -99 19 -94 -39 -122 -52 -150 -75 -32 -26 -12 -19 85
28 39 19 81 38 95 42 14 4 34 11 45 15 20 7 20 6 1 -9 -11 -9 -26 -16 -33 -16
-7 0 -54 -20 -105 -44 -127 -60 -168 -76 -168 -67 0 4 -27 21 -60 37 -58 28
-83 54 -37 37 12 -4 41 -6 65 -5 23 1 42 -2 42 -8 0 -5 -10 -10 -21 -10 -17 0
-19 -3 -10 -14 13 -16 32 -7 135 61 26 18 57 33 67 33 51 0 131 55 141 97 8
31 -17 36 -88 19 -32 -8 -70 -17 -84 -20 -27 -5 36 0 110 9 34 4 26 0 -30 -16
-41 -11 -90 -18 -108 -15 -34 5 -160 -55 -422 -200 -158 -88 -148 -79 -126
-103 9 -10 19 -25 20 -33 5 -25 18 -48 25 -44 3 2 7 -15 8 -37 1 -23 4 -59 8
-79 l7 -38 60 0 59 0 -33 -33 c-18 -19 -40 -45 -50 -58 l-16 -24 -7 53 c-4 28
-11 52 -16 52 -16 0 -29 -39 -29 -83 0 -68 -23 -89 -100 -95 -55 -4 -62 -3
-57 11 6 17 -17 17 -198 -3 -63 -7 -57 -8 62 -9 72 0 134 -5 138 -10 3 -5 6
-37 7 -71 2 -44 -2 -64 -12 -70 -19 -12 -1 -44 26 -47 24 -3 44 -8 67 -18 26
-11 67 38 67 78 0 16 5 47 11 68 14 44 39 61 39 26 0 -23 37 -178 44 -185 3
-2 19 3 38 11 18 8 47 18 63 22 28 6 29 5 10 -8 -34 -23 -103 -47 -120 -41 -8
3 -15 13 -15 21 0 12 -3 12 -16 -1 -13 -13 -30 -15 -92 -11 -114 9 -117 10
-115 23 2 9 -110 12 -490 12 -285 0 -498 4 -507 10 -8 5 -17 31 -20 62 -5 52
-6 53 -39 56 -18 2 -38 -1 -44 -7 -6 -6 -27 -11 -47 -11 -19 0 -30 -4 -25 -8
6 -4 11 -41 12 -82 l2 -75 -10 75 c-6 51 -14 79 -26 87 -9 7 -14 15 -11 18 3
3 72 7 154 9 153 4 310 17 517 42 66 8 133 15 150 15 l32 2 -35 6 c-31 6 -26
8 35 14 39 4 136 15 216 24 l147 17 0 88 c1 60 -3 88 -11 88 -8 0 -8 3 1 12
17 17 15 28 -5 21 -15 -5 -16 -3 -5 8 6 7 12 22 12 32 0 14 -5 18 -20 14 -19
-5 -24 3 -21 30 1 8 -10 13 -26 14 -28 0 -28 0 -5 12 17 8 25 8 30 0 5 -8 13
-7 27 4 16 13 17 15 3 10 -10 -4 -18 -2 -18 3 0 6 7 10 15 10 8 0 15 5 15 10
0 14 -23 13 -38 -2 -7 -7 -12 -8 -12 -4 0 5 11 19 25 32 46 42 34 54 -47 48
-94 -6 -120 -10 -197 -24 -35 -6 -70 -9 -78 -6 -8 3 -11 1 -8 -4 4 -6 -10 -10
-37 -9 -24 1 -53 -3 -65 -9 -12 -7 -28 -10 -35 -7 -8 3 -28 -1 -44 -10 -52
-27 -134 -11 -134 26 0 29 46 74 89 89 33 11 49 11 82 1 35 -10 44 -10 65 4
29 19 94 29 94 15 0 -6 9 -1 21 11 12 12 27 18 36 15 9 -4 22 -1 31 6 8 7 17
12 19 11 11 -9 63 -1 58 7 -4 6 -15 8 -26 5 -14 -5 -19 -2 -18 12 0 11 3 13 6
5 4 -10 8 -10 20 -1 19 16 54 19 46 5 -4 -6 2 -3 13 6 14 12 24 14 37 7 11 -7
17 -7 17 1 0 5 5 10 11 10 8 0 7 -5 -2 -16 -7 -8 -21 -13 -30 -11 -11 3 -17 0
-16 -7 1 -6 -8 -10 -21 -8 -23 3 -23 3 -5 -15 13 -13 19 -15 21 -6 2 7 8 13
13 13 6 0 7 -5 4 -10 -10 -16 12 -12 29 5 16 16 41 21 31 6 -3 -6 3 -9 14 -8
11 1 18 3 16 6 -3 2 0 10 6 17 13 16 2 37 -17 30 -19 -7 -17 1 6 24 23 23 28
105 8 113 -9 4 -10 8 -3 14 6 4 12 22 13 40 3 32 3 32 -29 23 -18 -5 -35 -7
-38 -5 -7 8 3 13 32 17 16 3 32 10 37 17 11 18 0 93 -16 108 -13 13 -8 53 7
53 5 0 6 6 3 14 -3 9 -12 12 -21 9 -11 -4 -14 -2 -9 5 4 7 17 12 29 12 15 0
18 3 9 8 -7 5 -10 16 -6 25 4 13 2 16 -9 11 -24 -9 -30 14 -7 26 11 6 18 16
14 22 -4 7 -9 6 -14 -2 -4 -7 -16 -9 -29 -5 -24 7 -27 19 -8 37 8 7 12 21 9
31 -4 14 0 18 14 17 32 -4 44 0 44 11 0 7 10 20 22 30 17 16 24 17 37 6 14
-11 14 -10 2 6 -18 23 -13 26 34 18 37 -6 40 -9 38 -36 -2 -17 -3 -34 -3 -40
-1 -5 4 -30 10 -55 6 -25 13 -92 15 -149 6 -110 9 -126 28 -114 8 5 8 2 0 -9
-7 -8 -10 -18 -6 -21 3 -4 0 -7 -8 -7 -11 0 -11 -2 -1 -9 16 -10 83 -4 97 10
5 5 18 9 30 9 16 0 17 2 6 9 -9 6 -22 6 -34 -1 -10 -5 -33 -11 -50 -13 -32 -4
-32 -4 -8 9 14 8 31 12 38 9 7 -3 13 0 13 6 0 6 18 11 43 10 23 0 36 -3 29 -6
-10 -4 -10 -8 2 -17 14 -9 13 -13 -9 -23 -16 -7 -25 -7 -25 -1 0 6 -12 3 -26
-7 -14 -9 -28 -14 -31 -11 -4 3 -12 1 -20 -5 -10 -9 -13 -8 -13 0 0 7 -5 9
-10 6 -6 -4 -8 -10 -5 -15 3 -4 -3 -7 -12 -6 -10 2 -21 -4 -24 -13 -5 -12 2
-19 25 -27 l31 -12 -30 -7 c-35 -9 -47 -23 -39 -47 3 -11 0 -18 -7 -18 -7 0 0
-13 16 -30 34 -36 48 -37 68 -7 l16 22 -6 -22 c-3 -14 -1 -23 6 -23 6 0 10 5
8 12 -1 6 7 14 17 16 20 4 53 32 39 32 -4 0 0 5 11 11 14 9 20 8 26 -1 5 -7
13 -9 21 -5 9 6 11 3 5 -10 -5 -15 -4 -16 8 -6 11 9 20 10 35 2 25 -14 34 -14
26 -1 -8 13 55 13 75 0 13 -9 13 -11 0 -20 -28 -18 -3 -10 59 20 35 17 85 36
112 42 47 11 62 31 16 22 -21 -4 -21 -4 2 6 14 6 21 16 18 25 -4 9 -1 12 9 8
11 -4 12 -9 3 -19 -17 -20 6 -18 27 3 15 16 15 17 -1 23 -16 5 -16 7 -1 20 10
7 15 19 12 27 -3 7 0 13 7 13 7 0 4 5 -6 11 -15 9 -16 13 -5 26 10 13 9 15 -7
11 -11 -2 -19 -9 -18 -16 2 -6 -6 -16 -17 -22 -17 -9 -20 -8 -20 10 0 11 -6
20 -12 21 -7 1 -2 4 12 8 14 4 24 13 23 19 -2 7 4 12 12 12 8 0 15 -4 15 -10
0 -5 5 -10 11 -10 6 0 9 7 5 15 -5 13 -2 14 17 4 12 -7 17 -14 12 -16 -6 -2
-8 -26 -6 -54 2 -38 6 -49 17 -45 23 9 26 -12 4 -34 -11 -11 -24 -20 -29 -20
-6 0 -12 -4 -16 -9 -3 -6 9 -5 30 0 27 8 43 6 71 -7 32 -15 34 -18 17 -28 -16
-9 -14 -11 17 -17 l35 -6 -33 -12 c-38 -15 -39 -19 -9 -51 23 -25 28 -55 14
-77 -5 -8 -3 -13 3 -13 6 0 4 -8 -6 -17 -11 -12 -13 -18 -5 -21 9 -3 7 -10 -5
-23 -16 -17 -16 -25 -4 -77 8 -31 19 -60 24 -64 8 -6 7 -10 0 -15 -12 -8 -10
-24 13 -153 9 -50 0 -46 113 -42 l50 2 -6 77 c-3 43 -10 81 -16 84 -7 4 -6 8
2 11 11 3 14 216 5 438 -7 174 -8 261 -1 267 3 3 6 1 6 -5 0 -6 10 -12 23 -14
16 -2 21 -9 19 -23 -2 -11 -8 -23 -13 -26 -11 -6 -15 -270 -7 -372 5 -51 12
-76 32 -101 14 -18 28 -44 31 -58 4 -14 20 -40 36 -57 33 -36 44 -70 35 -106
-5 -18 -1 -27 14 -35 11 -6 20 -8 20 -5 0 3 11 -2 25 -11 l25 -16 0 1401 0
1401 -2000 0 -2000 0 0 -2000z m2690 1949 c0 -9 -170 -11 -795 -10 -801 1
-1004 -2 -1034 -18 -16 -9 -21 -9 -21 2 0 38 -4 37 937 36 523 -1 913 -5 913
-10z m30 -1 c0 -10 2 -10 9 0 5 8 19 11 36 8 40 -7 43 -16 6 -16 -18 0 -41 -5
-53 -11 -23 -13 -31 -8 -22 15 7 19 24 22 24 4z m189 -3 c-10 -10 -22 -13 -35
-8 -16 6 -15 8 11 14 17 4 32 7 35 8 2 0 -3 -6 -11 -14z m178 -1 c2 -5 -25 -9
-60 -8 -79 1 -87 2 -87 12 0 10 143 7 147 -4z m106 6 c15 0 18 -3 10 -11 -6
-6 -25 -8 -48 -3 -26 5 -33 9 -23 15 7 5 19 7 26 4 8 -3 23 -5 35 -5z m87 0
c21 -7 18 -8 -18 -9 -26 -1 -41 3 -37 9 7 11 19 11 55 0z m-440 -4 c0 -11 -19
-15 -25 -6 -3 5 1 10 9 10 9 0 16 -2 16 -4z m510 -6 c0 -13 -11 -13 -30 0 -12
8 -11 10 8 10 12 0 22 -4 22 -10z m-1250 -14 c0 -3 -4 -8 -10 -11 -5 -3 -10
-1 -10 4 0 6 5 11 10 11 6 0 10 -2 10 -4z m-1253 -88 c-3 -8 -6 -5 -6 6 -1 11
2 17 5 13 3 -3 4 -12 1 -19z m7 -73 c-3 -54 -14 -55 -14 -1 0 26 3 45 8 42 4
-2 7 -21 6 -41z m2043 -11 c-3 -3 -12 -4 -19 -1 -8 3 -5 6 6 6 11 1 17 -2 13
-5z m-1780 -10 c-3 -3 -12 -4 -19 -1 -8 3 -5 6 6 6 11 1 17 -2 13 -5z m88 -4
c3 -6 -1 -7 -9 -4 -18 7 -21 14 -7 14 6 0 13 -4 16 -10z m540 0 c3 -6 -4 -10
-17 -10 -18 0 -20 2 -8 10 19 12 18 12 25 0z m722 4 c-3 -3 -12 -4 -19 -1 -8
3 -5 6 6 6 11 1 17 -2 13 -5z m66 -1 c-7 -2 -21 -2 -30 0 -10 3 -4 5 12 5 17
0 24 -2 18 -5z m60 0 c-7 -2 -19 -2 -25 0 -7 3 -2 5 12 5 14 0 19 -2 13 -5z
m110 0 c-7 -2 -21 -2 -30 0 -10 3 -4 5 12 5 17 0 24 -2 18 -5z m452 -3 c7 -12
-2 -12 -30 0 -19 8 -19 9 2 9 12 1 25 -3 28 -9z m-1855 -4 c0 -3 -4 -8 -10
-11 -5 -3 -10 -1 -10 4 0 6 5 11 10 11 6 0 10 -2 10 -4z m760 -6 c0 -5 -2 -10
-4 -10 -3 0 -8 5 -11 10 -3 6 -1 10 4 10 6 0 11 -4 11 -10z m130 -6 c0 -2 -18
-4 -40 -4 -22 0 -40 3 -40 8 0 4 18 6 40 4 22 -2 40 -6 40 -8z m-1118 -41 c-5
-10 -12 -35 -16 -56 -4 -21 -10 -45 -13 -53 -3 -10 2 -14 18 -14 l23 0 -22
-16 c-13 -9 -26 -13 -29 -10 -4 3 0 6 8 6 11 1 10 4 -3 14 -15 11 -16 16 -3
54 8 23 18 60 21 83 5 31 9 37 16 25 5 -9 5 -23 0 -33z m925 41 c-3 -3 -12 -4
-19 -1 -8 3 -5 6 6 6 11 1 17 -2 13 -5z m1173 -24 c0 -11 -4 -20 -10 -20 -5 0
-10 9 -10 20 0 11 5 20 10 20 6 0 10 -9 10 -20z m-2323 -22 c-3 -8 -6 -5 -6 6
-1 11 2 17 5 13 3 -3 4 -12 1 -19z m11 -68 c0 -28 -4 -52 -8 -55 -4 -3 -8 20
-9 50 0 30 4 55 8 55 5 0 9 -23 9 -50z m2305 -3 c-2 -23 -9 -46 -15 -52 -8 -7
-9 -5 -4 8 3 10 6 37 6 58 0 22 4 38 9 35 5 -4 7 -25 4 -49z m-473 -46 c0 -12
-45 -18 -85 -11 -25 4 -22 6 20 11 28 3 53 7 58 7 4 1 7 -2 7 -7z m40 -1 c12
-8 11 -10 -7 -10 -13 0 -23 5 -23 10 0 13 11 13 30 0z m70 -1 c0 -5 -11 -9
-25 -9 -33 0 -33 15 0 16 14 1 25 -2 25 -7z m165 2 c-6 -6 -25 -6 -45 -1 l-35
8 45 1 c27 1 40 -3 35 -8z m40 -1 c3 -5 -1 -10 -9 -10 -9 0 -16 5 -16 10 0 6
4 10 9 10 6 0 13 -4 16 -10z m-1862 -7 c-7 -2 -21 -2 -30 0 -10 3 -4 5 12 5
17 0 24 -2 18 -5z m86 -3 c24 0 24 -1 5 -14 -10 -8 -20 -10 -22 -5 -2 5 -15 9
-28 9 -13 0 -24 5 -24 11 0 7 9 9 23 5 12 -3 33 -6 46 -6z m51 -15 c-7 -8 -17
-15 -23 -15 -6 0 -2 7 9 15 25 19 30 19 14 0z m60 7 c0 -5 -7 -9 -15 -9 -8 0
-15 4 -15 9 0 4 7 8 15 8 8 0 15 -4 15 -8z m1145 -2 c3 -6 -4 -10 -17 -10 -18
0 -20 2 -8 10 19 12 18 12 25 0z m82 4 c-3 -3 -12 -4 -19 -1 -8 3 -5 6 6 6 11
1 17 -2 13 -5z m-1701 -41 c-3 -4 0 -13 7 -21 9 -13 9 -14 0 -8 -7 4 -13 2
-13 -3 0 -6 -4 -11 -10 -11 -11 0 -14 63 -3 74 4 3 11 -1 16 -9 5 -9 6 -19 3
-22z m818 17 c-11 -10 -81 -20 -89 -12 -3 3 -25 7 -48 8 -66 3 -67 4 -67 12 0
4 48 6 106 4 59 -2 103 -7 98 -12z m686 10 c0 -5 -7 -10 -16 -10 -8 0 -12 5
-9 10 3 6 10 10 16 10 5 0 9 -4 9 -10z m-570 -11 c0 -4 -21 -9 -47 -11 -27 -3
-57 -8 -68 -13 -19 -8 -19 -8 -3 11 13 15 30 20 68 20 27 0 50 -3 50 -7z m467
-6 c3 -7 -16 -10 -52 -8 -30 1 -58 -2 -61 -6 -3 -5 -14 -5 -24 1 -24 13 -40
13 -20 0 8 -5 11 -12 7 -16 -3 -4 -13 -2 -20 4 -8 7 -17 9 -21 5 -4 -4 -11 -1
-16 7 -8 13 -10 12 -10 -2 0 -11 -5 -15 -15 -12 -8 4 -13 10 -10 14 8 13 -129
8 -137 -4 -5 -7 -11 -7 -20 2 -6 6 -21 12 -31 12 -16 0 -17 -3 -7 -15 10 -12
10 -15 -2 -15 -7 0 -14 9 -15 20 -1 16 6 19 50 22 126 7 401 1 404 -9z m53 7
c0 -13 -11 -13 -30 0 -12 8 -11 10 8 10 12 0 22 -4 22 -10z m-1235 -29 c-6 -5
-25 10 -25 20 0 5 6 4 14 -3 8 -7 12 -15 11 -17z m115 25 c0 -3 -4 -8 -10 -11
-5 -3 -10 -1 -10 4 0 6 5 11 10 11 6 0 10 -2 10 -4z m390 -16 c0 -5 -5 -10
-11 -10 -5 0 -7 5 -4 10 3 6 8 10 11 10 2 0 4 -4 4 -10z m-461 -14 c10 -12 8
-13 -8 -9 -12 3 -21 9 -21 14 0 14 16 11 29 -5z m515 -1 c-4 -8 -11 -15 -16
-15 -6 0 -5 6 2 15 7 8 14 15 16 15 2 0 1 -7 -2 -15z m123 9 c-3 -3 -12 -4
-19 -1 -8 3 -5 6 6 6 11 1 17 -2 13 -5z m193 -4 c0 -5 -5 -10 -11 -10 -5 0 -7
5 -4 10 3 6 8 10 11 10 2 0 4 -4 4 -10z m-900 -25 c0 -14 -4 -25 -10 -25 -5 0
-10 11 -10 25 0 14 5 25 10 25 6 0 10 -11 10 -25z m-133 1 c-5 -16 -24 -18
-30 -4 -3 9 3 14 14 14 11 0 18 -5 16 -10z m265 -58 c2 -29 8 -61 12 -70 5
-12 4 -18 -5 -18 -7 0 -10 3 -7 6 4 3 0 21 -8 39 -8 19 -14 48 -14 65 0 16 -4
30 -10 30 -5 0 -10 5 -10 10 0 7 6 7 19 0 14 -7 20 -24 23 -62z m-312 44 c0
-5 -9 -17 -20 -27 -16 -14 -20 -15 -20 -4 0 16 19 39 32 39 4 0 8 -4 8 -8z
m178 -62 c0 -23 -3 -38 -7 -35 -8 9 -8 75 1 75 4 0 6 -18 6 -40z m-954 -7
c-13 -10 -20 -10 -23 -2 -4 14 19 30 33 22 5 -3 1 -12 -10 -20z m570 -9 c9 -8
16 -17 16 -19 0 -7 -36 1 -42 10 -20 27 1 34 26 9z m610 0 c18 -17 22 -69 5
-59 -6 4 -8 14 -4 23 4 10 -3 23 -17 34 -13 10 -18 18 -11 18 6 0 19 -7 27
-16z m1726 -38 c-7 -7 -10 -6 -10 2 0 7 -7 12 -16 12 -8 0 -12 5 -9 10 4 6 11
8 16 5 5 -4 9 2 10 12 0 14 3 12 10 -6 6 -16 6 -28 -1 -35z m427 39 c0 -8 -6
-15 -13 -15 -7 0 -14 -4 -16 -9 -1 -4 -21 -11 -43 -15 -39 -7 -39 -7 -17 9 12
9 26 13 32 10 5 -3 18 3 30 15 24 24 27 25 27 5z m203 5 c0 -5 -4 -10 -10 -10
-5 0 -10 5 -10 10 0 6 5 10 10 10 6 0 10 -4 10 -10z m-2920 -4 c0 -11 -19 -15
-25 -6 -3 5 1 10 9 10 9 0 16 -2 16 -4z m848 -12 c24 -7 29 -33 10 -52 -9 -9
-7 -12 13 -13 22 0 22 -1 4 -9 -32 -14 -59 -12 -47 3 5 6 13 22 17 35 6 22 4
24 -32 22 -52 -3 -62 0 -38 10 25 11 43 12 73 4z m1981 -15 c-14 -8 -29 -3
-29 11 0 4 9 6 21 3 15 -4 17 -8 8 -14z m-1472 -91 c-2 -26 -6 -50 -9 -53 -10
-10 20 -59 39 -67 10 -3 36 -7 57 -7 67 -1 76 -18 76 -139 0 -101 1 -104 18
-89 29 27 35 20 10 -13 -16 -22 -24 -27 -30 -18 -8 13 -9 11 -12 -14 -1 -9
-22 -14 -58 -16 -47 -2 -58 0 -58 13 0 8 -3 15 -8 15 -4 0 -8 19 -9 43 -5 144
-15 232 -28 250 -12 17 -13 -1 -10 -141 2 -94 0 -164 -6 -167 -5 -4 -9 35 -9
95 0 120 -13 153 -65 170 -71 23 -125 -21 -125 -102 0 -35 -6 -54 -20 -68 -11
-11 -20 -24 -20 -30 0 -5 -5 -10 -11 -10 -5 0 -7 5 -4 11 5 7 -9 9 -42 7 l-48
-3 -3 -47 c-4 -66 -22 -61 -22 6 0 35 -5 58 -15 66 -17 14 -21 129 -6 158 5 9
11 53 12 97 4 77 3 80 -19 83 -12 2 -20 7 -17 12 7 11 54 -9 57 -24 0 -6 2
-18 2 -26 1 -8 7 -14 14 -12 17 3 15 -9 -5 -24 -17 -12 -16 -13 7 -14 l25 -1
-25 -14 c-23 -13 -23 -14 -5 -15 11 -1 14 -4 7 -7 -6 -2 -10 -9 -7 -13 3 -5
-3 -14 -13 -19 -17 -9 -19 -21 -17 -96 2 -93 8 -105 51 -97 36 7 38 19 4 26
-36 7 -38 21 -7 47 l22 19 -27 -6 c-18 -4 -28 -2 -28 5 0 6 4 11 9 11 6 0 9 9
8 20 -1 11 -4 20 -7 20 -3 0 -6 9 -6 20 0 21 7 24 68 34 23 4 45 17 58 34 12
15 18 21 14 13 -4 -9 -3 -12 3 -8 12 8 5 55 -10 64 -5 3 -15 -1 -21 -9 -6 -8
-20 -15 -30 -15 -17 0 -17 2 4 19 12 10 31 18 41 18 10 0 19 6 19 14 0 7 9 25
21 40 18 23 28 26 78 26 74 0 99 -17 104 -73 3 -31 4 -25 5 24 1 36 5 69 9 73
12 11 23 -44 20 -96z m1423 93 c0 -5 -7 -11 -14 -14 -10 -4 -13 -1 -9 9 6 15
23 19 23 5z m-2042 -18 c-8 -10 -23 -40 -33 -66 -10 -26 -25 -52 -34 -58 -14
-9 -14 -10 2 -5 14 4 17 -1 17 -30 0 -28 8 -42 38 -69 20 -19 32 -35 26 -35
-6 0 -14 3 -18 7 -4 4 -15 8 -24 8 -9 0 -18 9 -20 20 -2 11 -14 31 -26 45 -12
14 -21 36 -20 50 0 14 1 47 2 73 2 59 22 54 22 -6 l1 -42 13 37 c17 48 43 88
58 88 7 0 5 -7 -4 -17z m1982 7 c0 -5 -5 -10 -11 -10 -5 0 -7 5 -4 10 3 6 8
10 11 10 2 0 4 -4 4 -10z m157 4 c-3 -3 -12 -4 -19 -1 -8 3 -5 6 6 6 11 1 17
-2 13 -5z m-2933 -38 c-6 -15 -24 -23 -24 -11 0 8 24 34 28 30 1 -1 0 -10 -4
-19z m2656 19 c0 -13 -45 -65 -55 -65 -7 0 -31 -14 -53 -30 -23 -17 -42 -26
-42 -21 0 13 58 57 94 70 15 6 30 20 33 31 5 18 23 29 23 15z m-2133 -37 c-3
-8 -6 -5 -6 6 -1 11 2 17 5 13 3 -3 4 -12 1 -19z m133 14 c0 -4 -7 -17 -15
-29 -14 -20 -14 -23 5 -33 11 -6 20 -16 20 -22 0 -6 -3 -8 -7 -5 -3 4 -12 2
-20 -5 -7 -6 -17 -8 -20 -4 -4 4 -1 11 7 17 11 7 12 11 3 17 -14 9 -13 54 2
64 13 10 25 10 25 0z m2300 -12 c0 -5 -5 -10 -11 -10 -5 0 -7 5 -4 10 3 6 8
10 11 10 2 0 4 -4 4 -10z m-2880 -21 c0 -14 -16 -11 -29 5 -10 12 -8 13 8 9
12 -3 21 -9 21 -14z m312 -14 c-2 -14 -8 -25 -12 -25 -4 0 -5 11 -2 25 2 14 8
25 12 25 4 0 5 -11 2 -25z m511 -27 c14 -106 33 -196 45 -210 18 -22 5 -50
-20 -42 -14 4 -18 2 -14 -5 4 -6 14 -11 22 -11 8 0 14 -6 14 -13 0 -8 9 -22
20 -32 24 -22 26 -35 3 -35 -9 0 -13 3 -10 7 9 9 -33 53 -50 53 -7 0 -13 8
-14 18 0 10 -3 12 -6 5 -2 -7 -9 -13 -15 -13 -6 0 -7 7 -4 16 3 8 -2 27 -11
42 -17 26 -17 26 0 13 22 -17 32 -9 19 16 -11 21 -16 190 -6 216 11 29 22 19
27 -25z m-883 0 c-12 -11 -24 -17 -28 -13 -3 3 0 10 7 14 7 5 11 13 7 19 -4 6
2 8 14 5 l21 -6 -21 -19z m295 -63 c3 -43 2 -75 -2 -72 -4 4 -8 15 -9 25 -1 9
-4 39 -8 66 -5 43 -1 74 10 63 2 -2 6 -39 9 -82z m775 65 c0 -5 -5 -10 -11
-10 -5 0 -7 5 -4 10 3 6 8 10 11 10 2 0 4 -4 4 -10z m1810 -1 c0 -15 -18 -19
-23 -6 -3 8 1 14 9 14 8 0 14 -4 14 -8z m-550 -25 c0 -14 -4 -23 -9 -20 -5 3
-7 15 -4 26 7 28 13 25 13 -6z m660 16 c0 -5 -5 -10 -11 -10 -5 0 -7 5 -4 10
3 6 8 10 11 10 2 0 4 -4 4 -10z m-2620 -19 c0 -11 -4 -23 -10 -26 -6 -4 -10 5
-10 19 0 14 5 26 10 26 6 0 10 -9 10 -19z m-350 -1 c0 -5 -4 -10 -10 -10 -5 0
-10 5 -10 10 0 6 5 10 10 10 6 0 10 -4 10 -10z m30 0 c0 -5 -2 -10 -4 -10 -3
0 -8 5 -11 10 -3 6 -1 10 4 10 6 0 11 -4 11 -10z m447 -22 c-3 -8 -6 -5 -6 6
-1 11 2 17 5 13 3 -3 4 -12 1 -19z m1983 12 c0 -5 -4 -10 -10 -10 -5 0 -10 5
-10 10 0 6 5 10 10 10 6 0 10 -4 10 -10z m340 6 c0 -2 -8 -10 -17 -17 -16 -13
-17 -12 -4 4 13 16 21 21 21 13z m-2205 -26 c3 -5 1 -10 -4 -10 -6 0 -11 5
-11 10 0 6 2 10 4 10 3 0 8 -4 11 -10z m1712 -22 c-3 -8 -6 -5 -6 6 -1 11 2
17 5 13 3 -3 4 -12 1 -19z m-2282 2 c-3 -5 -12 -7 -20 -3 -21 7 -19 13 6 13
11 0 18 -4 14 -10z m641 -15 c1 -8 -2 -17 -7 -21 -5 -3 -9 7 -9 22 0 27 12 26
16 -1z m1754 15 c0 -5 -5 -10 -11 -10 -5 0 -7 5 -4 10 3 6 8 10 11 10 2 0 4
-4 4 -10z m-1842 -37 c-14 -54 -30 -67 -22 -18 5 32 17 54 31 55 1 0 -3 -17
-9 -37z m2162 33 c0 -3 -4 -8 -10 -11 -5 -3 -10 -1 -10 4 0 6 5 11 10 11 6 0
10 -2 10 -4z m-2776 -24 c3 -5 -1 -9 -9 -9 -8 0 -12 4 -9 9 3 4 7 8 9 8 2 0 6
-4 9 -8z m2351 -42 c-1 -14 -3 -34 -5 -45 -1 -12 -4 -15 -7 -7 -3 8 -9 10 -16
4 -7 -5 -25 -12 -41 -16 -29 -7 -116 -62 -116 -73 0 -3 7 0 15 7 22 18 18 3
-6 -23 -19 -20 -20 -20 -13 -2 7 20 7 20 -14 1 -12 -10 -19 -23 -15 -29 4 -6
1 -7 -6 -3 -16 10 -73 -13 -64 -27 3 -5 1 -7 -5 -4 -15 10 -43 -3 -35 -16 3
-6 1 -7 -5 -3 -14 8 -81 -54 -75 -69 2 -6 -4 -20 -13 -30 -8 -11 -12 -13 -8
-5 4 8 -8 1 -27 -17 -19 -17 -50 -39 -69 -47 -19 -9 -27 -14 -17 -11 21 5 23
-11 2 -19 -18 -6 -50 4 -38 13 5 3 16 18 26 34 10 15 24 27 32 27 30 0 63 24
84 61 25 43 114 112 170 130 20 7 66 38 102 71 36 32 69 58 73 58 3 0 22 10
41 23 24 15 35 30 35 47 1 19 3 21 9 10 5 -8 8 -26 6 -40z m-2260 30 c3 -6 -1
-7 -9 -4 -18 7 -21 14 -7 14 6 0 13 -4 16 -10z m2730 0 c-3 -5 -10 -10 -16
-10 -5 0 -9 5 -9 10 0 6 7 10 16 10 8 0 12 -4 9 -10z m262 -37 c-3 -10 -5 -4
-5 12 0 17 2 24 5 18 2 -7 2 -21 0 -30z m-3660 -35 c-2 -13 -4 -5 -4 17 -1 22
1 32 4 23 2 -10 2 -28 0 -40z m638 43 c-11 -4 -36 -11 -55 -14 -34 -6 -35 -6
-10 8 14 8 39 14 55 14 25 0 27 -2 10 -8z m269 -55 c3 -22 11 -43 18 -47 10
-7 8 -9 -5 -9 -13 0 -17 -5 -13 -17 12 -44 18 -171 7 -177 -12 -7 -15 8 -11
58 1 18 -2 26 -9 22 -14 -9 -14 -4 -1 30 6 15 8 35 4 43 -10 23 -13 154 -3
144 5 -5 10 -26 13 -47z m365 -31 c-1 -42 -6 -78 -11 -81 -6 -4 -7 25 -5 72 6
88 5 84 12 84 3 0 5 -34 4 -75z m-105 59 c9 -3 16 -15 16 -26 0 -10 -4 -17 -9
-14 -5 3 -9 0 -8 -7 1 -41 -5 -66 -18 -71 -13 -5 -14 2 -10 42 4 26 6 55 6 65
0 19 1 19 23 11z m-216 -29 c-3 -14 -1 -28 3 -31 5 -3 8 -29 8 -57 l-2 -52
-10 55 c-6 30 -15 58 -21 62 -8 5 -7 8 2 8 6 0 12 9 12 20 0 11 3 20 6 20 4 0
4 -11 2 -25z m382 15 c0 -5 -5 -10 -11 -10 -5 0 -7 5 -4 10 3 6 8 10 11 10 2
0 4 -4 4 -10z m1047 -10 c-1 -11 -5 -20 -9 -20 -4 0 -8 9 -8 20 0 11 4 20 9
20 6 0 9 -9 8 -20z m-1736 -7 c13 -17 13 -17 -6 -3 -11 8 -22 16 -24 17 -2 2
0 3 6 3 6 0 17 -8 24 -17z m446 -20 c-3 -10 -5 -4 -5 12 0 17 2 24 5 18 2 -7
2 -21 0 -30z m239 -20 c-11 -11 -17 4 -9 23 7 18 8 18 11 1 2 -10 1 -21 -2
-24z m1604 6 c0 -5 -4 -9 -10 -9 -5 0 -10 7 -10 16 0 8 5 12 10 9 6 -3 10 -10
10 -16z m210 -21 c0 -7 -16 -24 -36 -38 -20 -13 -66 -53 -102 -87 -36 -35 -67
-62 -68 -60 -5 5 192 195 204 197 1 0 2 -6 2 -12z m-2335 -18 c3 -5 1 -10 -4
-10 -6 0 -11 5 -11 10 0 6 2 10 4 10 3 0 8 -4 11 -10z m-215 -4 c0 -2 -9 -6
-20 -9 -11 -3 -18 -1 -14 4 5 9 34 13 34 5z m257 -53 c-3 -10 -5 -2 -5 17 0
19 2 27 5 18 2 -10 2 -26 0 -35z m253 -39 c0 -54 4 -83 10 -79 6 3 10 19 10
36 0 16 3 29 8 29 4 0 5 -22 4 -49 -3 -38 -7 -48 -18 -44 -11 4 -14 -10 -14
-70 0 -42 -4 -78 -9 -81 -4 -3 -8 73 -7 169 1 96 4 175 9 175 4 0 7 -39 7 -86z
m1267 54 c-3 -7 -5 -2 -5 12 0 14 2 19 5 13 2 -7 2 -19 0 -25z m-907 13 c0 -6
-4 -13 -10 -16 -5 -3 -10 1 -10 9 0 9 5 16 10 16 6 0 10 -4 10 -9z m-133 -23
c-3 -8 -6 -5 -6 6 -1 11 2 17 5 13 3 -3 4 -12 1 -19z m323 12 c0 -5 -7 -10
-16 -10 -8 0 -12 5 -9 10 3 6 10 10 16 10 5 0 9 -4 9 -10z m-1037 -7 c-7 -2
-19 -2 -25 0 -7 3 -2 5 12 5 14 0 19 -2 13 -5z m2317 -14 c0 -5 -4 -9 -10 -9
-5 0 -10 7 -10 16 0 8 5 12 10 9 6 -3 10 -10 10 -16z m-1673 -26 c-3 -10 -5
-4 -5 12 0 17 2 24 5 18 2 -7 2 -21 0 -30z m-117 18 c0 -6 -4 -13 -10 -16 -5
-3 -10 1 -10 9 0 9 5 16 10 16 6 0 10 -4 10 -9z m-490 -17 c0 -2 -7 -4 -15 -4
-8 0 -15 4 -15 10 0 5 7 7 15 4 8 -4 15 -8 15 -10z m318 -77 c-3 -45 -9 -82
-15 -84 -6 -2 -9 -16 -7 -31 l4 -27 -9 25 -9 25 -7 -22 c-13 -40 -25 -24 -25
32 0 30 5 55 10 55 9 0 15 -30 11 -53 -1 -5 3 -6 9 -2 5 3 10 15 10 26 0 10 3
19 8 19 4 0 5 30 4 66 -3 50 -1 64 8 59 9 -5 11 -32 8 -88z m542 13 c-4 -41
-7 -65 -8 -52 -2 16 -8 22 -27 22 -21 0 -25 -5 -25 -30 0 -16 -4 -30 -10 -30
-11 0 -12 19 -4 73 6 33 10 37 35 37 24 0 29 4 29 23 0 20 10 43 15 35 0 -2
-2 -37 -5 -78z m-58 38 c-9 -9 -12 -7 -12 12 0 19 3 21 12 12 9 -9 9 -15 0
-24z m1461 -96 c-8 -13 -17 -21 -20 -18 -3 3 -14 -5 -24 -17 -9 -13 -37 -32
-61 -43 -24 -10 -50 -28 -59 -38 -16 -19 -16 -19 -29 3 -7 14 -8 21 -1 17 10
-7 116 48 127 65 3 5 10 7 15 4 5 -3 6 1 3 10 -5 11 0 18 15 22 11 3 21 10 22
17 1 6 2 20 3 31 1 11 4 34 6 50 2 22 5 15 10 -25 5 -41 4 -61 -7 -78z m-1203
108 c0 -5 -5 -10 -11 -10 -5 0 -7 5 -4 10 3 6 8 10 11 10 2 0 4 -4 4 -10z
m-1095 -9 c-3 -5 -19 -12 -35 -16 -17 -4 -28 -11 -24 -16 3 -5 0 -9 -5 -9 -6
0 -11 4 -11 9 0 13 22 29 50 34 14 2 26 5 28 6 2 0 1 -3 -3 -8z m45 5 c0 -3
-4 -8 -10 -11 -5 -3 -10 -1 -10 4 0 6 5 11 10 11 6 0 10 -2 10 -4z m980 -16
c-13 -9 -13 -10 1 -10 8 0 21 6 28 13 10 10 11 8 5 -6 -6 -17 -3 -18 42 -11
27 5 87 8 134 7 105 -2 100 -1 100 -11 0 -4 -19 -9 -42 -10 -57 -2 -90 -10
-97 -20 -14 -21 -163 -32 -169 -13 -6 19 -32 12 -32 -8 0 -11 -4 -23 -10 -26
-6 -4 -10 11 -10 38 0 36 4 46 23 55 28 13 47 15 27 2z m532 -13 c-20 -21 -22
-34 -22 -132 0 -129 -8 -145 -77 -145 -49 0 -97 -21 -107 -46 -5 -13 -4 -15 7
-5 23 18 34 -7 33 -74 l-1 -59 -40 -2 c-32 -1 -54 -11 -100 -46 -65 -50 -111
-95 -104 -103 3 -2 33 20 66 49 34 29 75 63 92 75 l31 22 0 -185 c0 -180 -1
-185 -22 -200 -12 -9 -39 -16 -60 -16 -49 0 -83 -17 -97 -47 -6 -14 -11 -83
-11 -163 0 -127 -2 -142 -20 -160 -13 -13 -33 -20 -59 -20 -56 0 -88 -15 -106
-49 -12 -24 -15 -70 -15 -241 0 -230 6 -261 56 -280 14 -6 125 -10 247 -11
l222 -1 -170 -18 c-93 -10 -214 -22 -267 -25 -89 -7 -99 -6 -124 14 -40 31
-98 28 -132 -6 -15 -16 -38 -33 -52 -40 l-25 -11 28 -1 c24 -1 27 -5 27 -35 0
-43 -27 -74 -65 -76 -104 -6 -135 8 -135 61 0 29 -22 41 -35 19 -4 -7 -11 -8
-18 -2 -7 6 -21 12 -32 15 -11 2 28 4 87 3 58 0 110 3 114 7 15 15 -18 25 -55
16 -55 -13 -61 -11 -61 18 0 43 26 63 82 63 41 0 54 5 79 29 l29 29 0 246 0
245 26 20 c18 14 41 21 70 21 31 0 51 7 72 25 17 14 37 25 46 25 13 0 16 14
16 85 0 69 -3 85 -15 85 -12 0 -15 -15 -15 -79 0 -44 -4 -82 -9 -85 -5 -4 -30
-9 -55 -12 l-46 -7 0 87 0 86 28 1 c15 1 32 2 37 4 6 1 18 3 28 3 14 2 17 13
17 71 0 83 8 92 93 102 86 10 97 26 97 136 l0 85 -37 -28 c-21 -16 -44 -34
-51 -41 -8 -8 -27 -20 -43 -28 -16 -9 -29 -23 -29 -32 0 -27 -7 -11 -14 32 -6
37 -5 38 8 21 15 -18 16 -18 43 -1 15 10 49 36 76 58 l47 40 0 131 0 132 -80
-1 c-76 0 -80 1 -80 23 0 17 -6 22 -25 22 -14 0 -25 4 -25 10 0 5 11 12 25 16
14 3 25 10 25 15 0 5 5 9 11 9 6 0 8 -8 4 -19 -5 -17 0 -21 29 -26 19 -4 39
-4 45 -1 18 11 81 -5 81 -20 0 -10 14 -14 50 -14 28 0 50 5 50 10 0 6 -7 10
-15 10 -8 0 -15 5 -15 12 0 9 -3 9 -12 0 -14 -14 -42 -16 -33 -2 3 6 1 10 -4
10 -6 0 -11 7 -11 15 0 8 5 15 11 15 5 0 8 -4 5 -8 -5 -9 76 1 115 13 19 6 49
53 49 77 0 8 -12 13 -32 13 -37 0 -49 20 -16 28 13 4 25 2 27 -4 2 -7 7 -6 12
2 7 11 9 10 9 -4 0 -10 5 -15 10 -12 6 4 9 1 8 -6 -2 -6 3 -14 10 -16 6 -3 12
2 12 11 0 12 11 16 48 17 26 1 55 0 66 -1 10 -1 16 3 12 8 -3 5 -34 13 -68 16
-41 5 -57 10 -48 16 12 7 12 10 -2 15 -30 12 5 65 43 65 10 0 30 5 46 12 31
13 38 15 53 17 6 0 10 8 10 16 0 9 9 15 22 15 l21 0 -21 -23z m-1997 -7 c3 -5
2 -10 -4 -10 -5 0 -13 5 -16 10 -3 6 -2 10 4 10 5 0 13 -4 16 -10z m1145 -25
c0 -22 -4 -25 -35 -25 -23 0 -35 -5 -35 -13 0 -15 47 -40 60 -32 4 3 8 -11 7
-30 -1 -19 -5 -35 -9 -35 -7 0 -10 15 -7 36 1 8 -22 24 -35 24 -5 0 -3 -7 4
-15 10 -12 10 -15 -3 -15 -17 0 -27 21 -27 59 0 35 18 58 50 64 14 2 26 5 28
6 1 0 2 -10 2 -24z m650 -45 c0 -21 -4 -42 -10 -45 -6 -4 -10 13 -10 45 0 32
4 49 10 45 6 -3 10 -24 10 -45z m-1336 19 c-28 -11 -54 -10 -54 2 0 6 8 8 19
4 11 -3 22 -1 26 5 3 6 11 7 18 3 7 -4 4 -9 -9 -14z m-73 -8 c-9 -6 -10 -11
-2 -15 6 -4 15 -5 20 -1 5 3 12 1 16 -5 9 -15 -31 -12 -44 3 -11 14 -5 27 13
27 6 0 5 -4 -3 -9z m566 -83 c-2 -13 -4 -3 -4 22 0 25 2 35 4 23 2 -13 2 -33
0 -45z m-291 -16 c-13 -12 -17 8 -10 40 l9 33 3 -33 c2 -19 1 -36 -2 -40z
m767 55 c3 -8 1 -20 -4 -28 -6 -10 -9 -7 -9 14 0 29 5 35 13 14z m1317 -14 c0
-20 -3 -24 -11 -16 -7 7 -9 19 -6 27 10 24 17 19 17 -11z m-2280 2 c-7 -9 -15
-13 -19 -10 -3 3 1 10 9 15 21 14 24 12 10 -5z m-34 -2 c-3 -4 -14 -7 -24 -8
-9 -1 -28 -5 -42 -8 -20 -6 -19 -4 5 8 31 14 74 20 61 8z m865 -13 c10 0 20 6
22 13 3 6 6 -7 6 -30 1 -23 -4 -45 -11 -49 -7 -5 -8 -3 -3 6 6 9 0 11 -24 5
-31 -7 -31 -7 -31 36 0 33 3 40 12 31 7 -7 20 -12 29 -12z m229 -10 c0 -5 -13
-10 -30 -10 -16 0 -33 -6 -37 -13 -4 -8 -16 -16 -25 -20 -27 -10 -23 28 5 41
28 14 87 15 87 2z m40 6 c0 -11 -19 -15 -25 -6 -3 5 1 10 9 10 9 0 16 -2 16
-4z m100 -6 c0 -5 -7 -10 -15 -10 -8 0 -15 5 -15 10 0 6 7 10 15 10 8 0 15 -4
15 -10z m-1207 -49 c-2 -6 2 -11 8 -11 5 0 7 -5 4 -10 -4 -6 -10 -8 -15 -5 -4
3 -12 -1 -18 -8 -13 -17 -11 -46 4 -40 6 2 15 0 19 -6 3 -6 1 -11 -5 -11 -6 0
-8 -5 -5 -10 4 -6 -5 -5 -20 2 -19 8 -28 9 -37 0 -8 -8 -5 -9 11 -5 12 3 21 1
21 -6 0 -6 -11 -11 -25 -11 -14 0 -25 -6 -25 -12 0 -7 -5 -5 -11 6 -8 13 -8
20 0 26 9 5 8 10 -4 20 -20 16 -19 40 1 40 8 0 13 4 9 10 -7 11 49 42 59 33 3
-4 6 -1 6 6 0 7 6 11 13 8 6 -2 11 -10 10 -16z m202 -33 c-12 -104 -16 -121
-27 -110 -6 6 -7 18 -3 29 10 22 7 46 -7 54 -5 3 -2 9 7 13 9 3 16 15 15 28
-3 32 -1 38 10 38 7 0 9 -19 5 -52z m87 20 c1 -18 2 -51 2 -73 1 -22 5 -40 11
-40 5 0 9 6 7 13 -2 6 2 12 8 12 5 0 10 -22 10 -50 0 -27 -4 -50 -10 -50 -5 0
-10 12 -10 26 0 14 -4 23 -9 20 -5 -3 -7 -33 -5 -66 2 -33 0 -60 -5 -60 -5 0
-9 12 -9 28 0 15 -2 82 -5 150 -2 67 0 122 4 122 5 0 10 -15 11 -32z m24 23
c-4 -5 0 -11 6 -14 7 -2 9 -8 5 -13 -4 -5 -12 -2 -17 6 -13 20 -12 30 1 30 5
0 8 -4 5 -9z m374 -12 c0 -5 -4 -9 -10 -9 -5 0 -10 7 -10 16 0 8 5 12 10 9 6
-3 10 -10 10 -16z m520 7 c0 -9 -30 -14 -35 -6 -4 6 3 10 14 10 12 0 21 -2 21
-4z m1083 -47 c-3 -9 -17 -19 -31 -22 -15 -3 -38 -9 -51 -13 -18 -5 -22 -4
-16 5 5 10 2 11 -13 7 -11 -4 -30 -1 -41 6 -24 15 -28 33 -5 24 10 -4 13 -2 8
6 -5 8 5 9 34 5 23 -3 44 -1 47 4 3 4 12 6 19 3 8 -3 20 1 27 9 12 13 15 13
20 -1 3 -9 4 -24 2 -33z m-1793 25 c0 -8 -5 -12 -10 -9 -6 4 -8 11 -5 16 9 14
15 11 15 -7z m580 6 c0 -5 -5 -10 -11 -10 -5 0 -7 5 -4 10 3 6 8 10 11 10 2 0
4 -4 4 -10z m-1703 -32 c-3 -8 -6 -5 -6 6 -1 11 2 17 5 13 3 -3 4 -12 1 -19z
m3663 -28 c0 -27 -4 -50 -10 -50 -5 0 -10 23 -10 50 0 28 5 50 10 50 6 0 10
-22 10 -50z m-2950 30 c12 -8 11 -10 -7 -10 -13 0 -23 5 -23 10 0 13 11 13 30
0z m548 -25 c0 -32 6 -39 28 -31 12 5 14 9 5 20 -6 7 -9 21 -5 30 11 30 22 7
20 -46 -1 -50 -2 -53 -25 -50 -21 3 -23 1 -17 -22 4 -15 2 -26 -4 -26 -5 0
-10 10 -10 23 -1 12 -3 49 -7 81 -4 38 -2 57 4 53 6 -4 11 -18 11 -32z m-508
15 c0 -5 -2 -10 -4 -10 -3 0 -8 5 -11 10 -3 6 -1 10 4 10 6 0 11 -4 11 -10z
m716 -42 c-9 -12 -16 -30 -16 -40 0 -10 -7 -18 -15 -18 -11 0 -15 12 -15 47 0
41 2 45 13 29 12 -16 14 -16 27 11 10 22 14 24 17 11 3 -10 -3 -28 -11 -40z
m314 42 c0 -5 -7 -10 -15 -10 -8 0 -15 5 -15 10 0 6 7 10 15 10 8 0 15 -4 15
-10z m-697 -31 c6 -23 27 -17 27 7 0 8 5 12 10 9 13 -8 13 -135 0 -135 -5 0
-9 16 -8 35 2 44 -8 54 -26 29 -13 -16 -12 -21 0 -35 13 -15 13 -17 -1 -23 -9
-3 -19 -6 -21 -6 -2 0 -4 32 -4 70 0 68 12 92 23 49z m-133 1 c0 -5 -5 -10
-11 -10 -5 0 -7 5 -4 10 3 6 8 10 11 10 2 0 4 -4 4 -10z m1255 0 c-3 -5 -11
-10 -16 -10 -6 0 -7 5 -4 10 3 6 11 10 16 10 6 0 7 -4 4 -10z m705 -31 c0 -22
-4 -38 -9 -35 -5 4 -8 14 -6 24 2 9 4 25 4 35 2 35 11 16 11 -24z m-766 2
c-17 -10 -40 -22 -52 -25 -12 -4 -22 -11 -22 -15 0 -4 -7 -8 -15 -8 -21 0 -9
11 45 41 52 29 90 35 44 7z m-1564 -53 c0 -6 -7 -7 -16 -4 -9 3 -18 6 -20 6
-3 0 -3 4 1 10 7 11 35 2 35 -12z m226 -46 c-11 -10 -15 4 -8 28 l7 25 3 -23
c2 -13 1 -26 -2 -30z m491 26 c-3 -8 -6 -5 -6 6 -1 11 2 17 5 13 3 -3 4 -12 1
-19z m143 12 c8 -5 11 -12 8 -16 -10 -9 -38 3 -38 16 0 12 10 13 30 0z m1467
-22 c-3 -7 -5 -2 -5 12 0 14 2 19 5 13 2 -7 2 -19 0 -25z m-2283 16 c9 -3 16
-10 16 -16 0 -5 -4 -6 -10 -3 -5 3 -16 3 -22 -1 -16 -10 -48 -13 -48 -4 0 22
35 35 64 24z m966 -4 c0 -5 -4 -10 -10 -10 -5 0 -10 5 -10 10 0 6 5 10 10 10
6 0 10 -4 10 -10z m-140 -37 c0 -7 -5 -13 -10 -13 -6 0 -15 -10 -20 -22 -8
-20 -9 -19 -9 12 -1 29 3 36 19 36 11 0 20 -6 20 -13z m140 7 c0 -5 -5 -10
-11 -10 -5 0 -7 5 -4 10 3 6 8 10 11 10 2 0 4 -4 4 -10z m430 6 c0 -3 -4 -8
-10 -11 -5 -3 -10 -1 -10 4 0 6 5 11 10 11 6 0 10 -2 10 -4z m-890 -16 c0 -5
-13 -10 -30 -10 -20 0 -30 -5 -30 -15 0 -8 5 -15 11 -15 5 0 7 -4 4 -10 -3 -5
1 -10 10 -10 9 0 15 7 13 16 -2 10 3 19 10 21 9 4 12 -13 11 -64 -1 -37 -4
-57 -6 -43 -6 30 -19 39 -44 33 -21 -6 -25 -19 -8 -25 6 -2 9 -13 7 -23 -5
-20 -5 -20 -13 0 -5 11 -13 24 -19 28 -8 6 -7 10 2 14 7 3 12 25 12 59 l0 54
35 0 c19 0 35 -4 35 -10z m130 -5 c0 -8 -4 -15 -10 -15 -5 0 -7 7 -4 15 4 8 8
15 10 15 2 0 4 -7 4 -15z m37 -7 c-3 -8 -6 -5 -6 6 -1 11 2 17 5 13 3 -3 4
-12 1 -19z m-767 2 c0 -5 -5 -10 -11 -10 -5 0 -7 5 -4 10 3 6 8 10 11 10 2 0
4 -4 4 -10z m3130 -16 c0 -8 -4 -12 -10 -9 -5 3 -10 10 -10 16 0 5 5 9 10 9 6
0 10 -7 10 -16z m-3037 -16 c2 -8 -9 -18 -26 -24 -55 -19 -44 -34 25 -36 35
-1 73 -1 86 0 12 0 22 -3 22 -8 0 -15 -90 -50 -126 -50 -19 0 -34 -4 -34 -10
0 -5 5 -10 11 -10 5 0 7 -5 3 -12 -5 -8 -11 -6 -19 5 -7 10 -17 17 -24 17 -6
0 -11 7 -11 16 0 8 4 12 10 9 6 -4 7 2 1 16 -4 13 -13 25 -19 27 -8 2 -10 -3
-5 -14 4 -12 2 -15 -8 -12 -9 3 -13 16 -11 34 4 33 13 45 19 26 3 -8 9 -10 16
-3 7 5 26 11 42 13 17 2 29 8 28 16 -2 6 1 12 6 12 5 0 11 -6 14 -12z m-83 -8
c0 -5 -4 -10 -10 -10 -5 0 -10 5 -10 10 0 6 5 10 10 10 6 0 10 -4 10 -10z
m1046 -27 c-11 -11 -19 6 -11 24 8 17 8 17 12 0 3 -10 2 -21 -1 -24z m-770
-41 c-14 -13 -23 15 -13 38 l11 25 4 -28 c2 -16 1 -31 -2 -35z m454 48 c0 -5
-4 -10 -10 -10 -5 0 -10 5 -10 10 0 6 5 10 10 10 6 0 10 -4 10 -10z m180 0 c0
-5 -7 -10 -15 -10 -8 0 -15 -7 -15 -15 0 -8 -4 -15 -9 -15 -4 0 -6 11 -3 25 3
16 11 25 23 25 11 0 19 -4 19 -10z m-492 -47 c2 -27 -1 -43 -8 -43 -7 0 -9 8
-5 22 6 17 4 20 -10 15 -9 -4 -18 -7 -21 -7 -2 0 -1 -7 2 -15 4 -8 1 -15 -5
-15 -9 0 -10 43 -2 88 1 2 11 2 24 0 18 -2 23 -10 25 -45z m2699 15 c-3 -8 -6
-5 -6 6 -1 11 2 17 5 13 3 -3 4 -12 1 -19z m-747 -3 c0 -8 -4 -15 -10 -15 -5
0 -7 7 -4 15 4 8 8 15 10 15 2 0 4 -7 4 -15z m-1645 -5 c3 -5 1 -10 -4 -10 -6
0 -11 5 -11 10 0 6 2 10 4 10 3 0 8 -4 11 -10z m45 0 c0 -5 -4 -10 -10 -10 -5
0 -10 5 -10 10 0 6 5 10 10 10 6 0 10 -4 10 -10z m-494 -47 c-10 -10 -19 5
-10 18 6 11 8 11 12 0 2 -7 1 -15 -2 -18z m324 -13 c0 -5 -2 -10 -4 -10 -3 0
-8 5 -11 10 -3 6 -1 10 4 10 6 0 11 -4 11 -10z m280 -35 c0 -19 -4 -35 -8 -35
-4 0 -8 16 -9 35 -1 19 3 35 8 35 5 0 9 -16 9 -35z m-789 7 c-7 -2 -18 1 -23
6 -8 8 -4 9 13 5 13 -4 18 -8 10 -11z m289 -3 c0 -5 -4 -9 -10 -9 -5 0 -10 7
-10 16 0 8 5 12 10 9 6 -3 10 -10 10 -16z m219 -31 c-1 -31 -1 -31 -8 -8 -5
14 -6 28 -4 33 9 15 13 6 12 -25z m441 -8 c0 -16 -4 -30 -10 -30 -5 0 -8 10
-6 23 3 12 5 25 5 30 2 21 11 3 11 -23z m-1583 -17 c-3 -10 -5 -4 -5 12 0 17
2 24 5 18 2 -7 2 -21 0 -30z m923 22 c0 -8 -4 -15 -10 -15 -5 0 -10 7 -10 15
0 8 5 15 10 15 6 0 10 -7 10 -15z m-346 -4 c3 -5 -3 -11 -15 -14 -16 -4 -18
-3 -8 9 13 16 16 17 23 5z m503 -13 c-3 -8 -6 -5 -6 6 -1 11 2 17 5 13 3 -3 4
-12 1 -19z m193 -9 c0 -11 -4 -18 -10 -14 -5 3 -7 12 -3 20 7 21 13 19 13 -6z
m-313 -26 c-3 -10 -5 -4 -5 12 0 17 2 24 5 18 2 -7 2 -21 0 -30z m-152 17 c-3
-5 -12 -10 -18 -10 -7 0 -19 -9 -27 -20 -8 -11 -19 -20 -24 -20 -5 0 3 14 19
30 27 28 64 43 50 20z m332 -62 c-2 -13 -4 -3 -4 22 0 25 2 35 4 23 2 -13 2
-33 0 -45z m-540 46 c-3 -3 -12 -4 -19 -1 -8 3 -5 6 6 6 11 1 17 -2 13 -5z
m41 -23 c3 -8 -1 -12 -9 -9 -7 2 -15 10 -17 17 -3 8 1 12 9 9 7 -2 15 -10 17
-17z m279 -3 c-3 -8 -6 -5 -6 6 -1 11 2 17 5 13 3 -3 4 -12 1 -19z m503 13 c0
-6 -4 -13 -10 -16 -5 -3 -10 1 -10 9 0 9 5 16 10 16 6 0 10 -4 10 -9z m1490
-7 c0 -8 -4 -12 -10 -9 -5 3 -10 10 -10 16 0 5 5 9 10 9 6 0 10 -7 10 -16z
m-2093 -16 c-3 -8 -6 -5 -6 6 -1 11 2 17 5 13 3 -3 4 -12 1 -19z m273 2 c0 -5
-4 -10 -10 -10 -5 0 -10 5 -10 10 0 6 5 10 10 10 6 0 10 -4 10 -10z m-372 -27
c-8 -10 -18 -27 -23 -38 -5 -14 -9 -16 -12 -7 -3 7 5 24 18 38 26 27 40 33 17
7z m220 -98 l0 -30 -8 27 c-12 39 -18 106 -11 114 7 7 20 -66 19 -111z m329
93 c-3 -8 -6 -5 -6 6 -1 11 2 17 5 13 3 -3 4 -12 1 -19z m153 12 c0 -5 -4 -10
-10 -10 -5 0 -10 5 -10 10 0 6 5 10 10 10 6 0 10 -4 10 -10z m-840 -26 c0 -2
-9 -4 -20 -4 -11 0 -20 4 -20 9 0 5 9 7 20 4 11 -3 20 -7 20 -9z m507 -16 c-3
-7 -5 -2 -5 12 0 14 2 19 5 13 2 -7 2 -19 0 -25z m50 -45 c-2 -16 -4 -5 -4 22
0 28 2 40 4 28 2 -13 2 -35 0 -50z m293 45 c0 6 4 12 10 12 17 0 -1 -28 -21
-33 -15 -4 -19 0 -19 21 0 25 1 25 15 6 8 -11 15 -14 15 -6z m-160 -9 c0 -11
-4 -17 -10 -14 -5 3 -10 13 -10 21 0 8 5 14 10 14 6 0 10 -9 10 -21z m-313
-26 c-3 -10 -5 -4 -5 12 0 17 2 24 5 18 2 -7 2 -21 0 -30z m-233 11 c4 -10 1
-14 -6 -12 -15 5 -23 28 -10 28 5 0 13 -7 16 -16z m-98 -22 c-18 -16 -18 -16
-6 6 6 13 14 21 18 18 3 -4 -2 -14 -12 -24z m-31 8 c-27 -12 -43 -12 -25 0 8
5 22 9 30 9 10 0 8 -3 -5 -9z m3025 0 c-20 -13 -33 -13 -25 0 3 6 14 10 23 10
15 0 15 -2 2 -10z m-714 -47 c-11 -11 -17 4 -9 23 7 18 8 18 11 1 2 -10 1 -21
-2 -24z m692 -1 c-12 -15 -32 -29 -43 -29 -19 -2 -19 -1 -1 12 11 8 15 19 10
26 -5 8 -2 11 8 7 8 -4 21 -2 29 3 22 14 22 11 -3 -19z m-2461 -39 c-3 -10 -5
-2 -5 17 0 19 2 27 5 18 2 -10 2 -26 0 -35z m323 43 c0 -3 -4 -8 -10 -11 -5
-3 -10 -1 -10 4 0 6 5 11 10 11 6 0 10 -2 10 -4z m-504 -38 c-2 -18 -9 -34
-16 -36 -9 -3 -11 1 -5 14 4 11 10 27 12 37 8 27 13 20 9 -15z m344 22 c0 -5
-4 -10 -10 -10 -5 0 -10 5 -10 10 0 6 5 10 10 10 6 0 10 -4 10 -10z m110 -47
c0 -31 -3 -53 -7 -50 -10 11 -13 107 -2 107 5 0 9 -25 9 -57z m-858 25 c-7 -7
-12 -8 -12 -2 0 14 12 26 19 19 2 -3 -1 -11 -7 -17z m2948 12 c-19 -13 -30
-13 -30 0 0 6 10 10 23 10 18 0 19 -2 7 -10z m-2210 -19 c0 -16 -28 -20 -34
-5 -4 9 1 14 14 14 11 0 20 -4 20 -9z m-770 -21 c-6 -11 -13 -20 -16 -20 -2 0
0 9 6 20 6 11 13 20 16 20 2 0 0 -9 -6 -20z m2680 10 c-20 -13 -33 -13 -25 0
3 6 14 10 23 10 15 0 15 -2 2 -10z m240 6 c0 -9 -39 -13 -51 -5 -10 6 -4 9 19
9 17 0 32 -2 32 -4z m-950 -16 c0 -5 -4 -10 -10 -10 -5 0 -10 5 -10 10 0 6 5
10 10 10 6 0 10 -4 10 -10z m520 0 c0 -5 -5 -10 -11 -10 -5 0 -7 5 -4 10 3 6
8 10 11 10 2 0 4 -4 4 -10z m575 0 c3 -5 -3 -10 -15 -10 -12 0 -18 5 -15 10 3
6 10 10 15 10 5 0 12 -4 15 -10z m-2495 -10 c0 -5 -4 -10 -10 -10 -5 0 -10 5
-10 10 0 6 5 10 10 10 6 0 10 -4 10 -10z m50 0 c0 -5 -4 -10 -10 -10 -5 0 -10
5 -10 10 0 6 5 10 10 10 6 0 10 -4 10 -10z m1776 -15 c-4 -34 -16 -44 -16 -13
0 21 7 38 16 38 1 0 1 -11 0 -25z m214 21 c0 -2 -7 -7 -16 -10 -8 -3 -12 -2
-9 4 6 10 25 14 25 6z m186 -22 c-23 -16 -46 -18 -46 -4 0 6 9 10 19 10 11 0
23 5 26 11 4 6 10 7 13 4 4 -4 -2 -13 -12 -21z m139 16 c-3 -5 -11 -10 -16
-10 -6 0 -7 5 -4 10 3 6 11 10 16 10 6 0 7 -4 4 -10z m-48 -6 c-3 -3 -12 -4
-19 -1 -8 3 -5 6 6 6 11 1 17 -2 13 -5z m203 -4 c0 -5 -5 -10 -11 -10 -5 0 -7
5 -4 10 3 6 8 10 11 10 2 0 4 -4 4 -10z m-44 -8 c-5 -8 -66 -4 -66 4 0 2 16 4
36 4 19 0 33 -4 30 -8z m-2616 -12 c0 -5 -5 -10 -11 -10 -5 0 -7 5 -4 10 3 6
8 10 11 10 2 0 4 -4 4 -10z m2255 0 c-3 -5 -13 -10 -21 -10 -8 0 -14 5 -14 10
0 6 9 10 21 10 11 0 17 -4 14 -10z m-2598 -6 c-3 -3 -12 -4 -19 -1 -8 3 -5 6
6 6 11 1 17 -2 13 -5z m-171 -60 c-14 -25 -34 -53 -45 -61 -12 -8 -21 -20 -21
-27 0 -8 -7 -19 -15 -26 -13 -11 -13 -15 -3 -23 10 -6 9 -7 -4 -4 -11 4 -25
-5 -41 -26 -24 -32 -43 -53 -95 -112 -36 -40 -62 -81 -62 -98 0 -19 -57 -72
-78 -72 -17 0 -32 13 -32 27 0 9 33 -2 41 -14 3 -5 12 -2 19 7 10 13 9 15 -6
15 -18 1 -18 1 -1 11 9 5 21 8 25 5 8 -5 38 81 34 100 -1 6 9 17 23 24 14 7
25 17 25 20 0 4 32 38 71 76 39 38 77 85 86 104 8 19 19 42 23 51 7 14 2 18
-28 24 -30 6 -33 8 -19 16 9 6 31 8 47 6 18 -3 34 0 41 9 6 8 18 14 25 14 11
0 8 -12 -10 -46z m521 24 c-3 -8 -6 -5 -6 6 -1 11 2 17 5 13 3 -3 4 -12 1 -19z
m167 -4 l-7 -27 66 5 c58 3 66 2 71 -15 7 -28 -4 -47 -28 -48 -11 0 -40 -2
-63 -5 -24 -2 -43 -1 -43 4 0 4 -4 13 -9 21 -7 11 -17 6 -45 -23 -20 -20 -44
-36 -52 -36 -20 0 -103 -68 -163 -135 -25 -27 -71 -75 -101 -105 -30 -30 -54
-62 -53 -70 2 -9 0 -10 -3 -3 -4 9 -18 4 -47 -15 l-41 -27 35 -5 c25 -4 34
-10 34 -24 0 -19 -12 -29 -50 -41 -17 -6 -15 -8 14 -18 45 -16 49 -32 12 -52
-35 -18 -40 -35 -11 -35 11 0 23 -7 27 -15 8 -24 -5 -30 -24 -13 -10 9 -26 14
-35 13 -9 -2 -22 3 -28 10 -8 10 -2 18 29 36 46 25 45 39 -3 39 -18 0 -35 3
-39 6 -9 9 3 34 17 34 6 0 22 9 35 19 l25 19 -31 -2 c-16 -1 -45 -13 -64 -27
-49 -38 -150 -138 -183 -181 -16 -21 -35 -38 -42 -38 -8 0 -32 -11 -54 -25
-22 -14 -44 -25 -50 -25 -18 0 31 41 70 58 41 18 150 133 150 158 0 8 4 13 9
10 10 -7 71 50 71 65 0 5 7 9 16 9 8 0 12 5 9 10 -10 16 13 38 46 45 37 8 43
19 22 36 -12 10 -15 10 -9 1 6 -9 2 -10 -17 -1 -31 14 -29 32 6 59 26 20 39
49 16 35 -16 -10 -56 3 -63 20 -8 23 4 44 34 60 15 8 29 13 31 12 2 -1 -2 4
-11 11 -8 7 -20 10 -26 8 -7 -3 -18 2 -25 10 -11 13 -7 21 26 48 l39 33 -36 7
c-39 7 -50 22 -41 55 4 17 2 20 -12 14 -13 -4 -16 -3 -11 6 5 7 18 10 31 7 13
-3 27 -2 30 4 8 13 55 13 55 0 0 -5 -10 -9 -22 -7 -17 1 -24 -4 -26 -20 -2
-13 -8 -23 -13 -23 -6 0 -7 -5 -4 -10 4 -6 12 -7 18 -3 17 11 29 11 50 1 23
-11 22 -31 -3 -53 -11 -10 -20 -15 -20 -11 0 4 -6 1 -14 -6 -17 -16 -3 -38 24
-38 34 0 18 -43 -23 -63 -37 -17 -42 -37 -10 -37 9 0 31 -5 49 -12 31 -11 32
-12 17 -35 -8 -13 -21 -23 -28 -23 -7 0 -18 -7 -25 -15 -11 -13 -10 -14 3 -9
9 3 24 -3 36 -15 17 -17 21 -18 32 -5 6 8 8 14 3 14 -5 1 9 10 31 22 22 11 51
35 65 52 55 68 202 206 225 212 14 3 25 10 25 15 0 4 12 15 28 23 19 11 22 15
10 16 -10 0 -18 6 -18 14 0 9 7 12 20 9 12 -3 20 0 20 6 0 7 -4 9 -10 6 -5 -3
-10 -1 -10 5 0 6 8 10 18 8 9 -2 16 -11 14 -19 -2 -8 0 -10 5 -6 4 5 8 12 9
15 1 12 16 42 20 42 3 0 1 -12 -2 -26z m-491 9 c-7 -2 -19 -2 -25 0 -7 3 -2 5
12 5 14 0 19 -2 13 -5z m304 -15 c-3 -8 -6 -5 -6 6 -1 11 2 17 5 13 3 -3 4
-12 1 -19z m-120 -10 c-3 -8 -6 -5 -6 6 -1 11 2 17 5 13 3 -3 4 -12 1 -19z
m223 2 c-20 -13 -60 -13 -60 0 0 6 17 10 38 10 27 0 33 -3 22 -10z m368 -92
l-3 -102 -55 -12 c-42 -10 -57 -10 -65 -1 -7 8 -9 48 -5 107 l5 95 50 6 c28 3
56 7 63 7 10 2 12 -21 10 -100z m1632 82 c0 -5 -10 -10 -22 -10 -19 0 -20 2
-8 10 19 13 30 13 30 0z m-3030 -35 c0 -19 -5 -35 -11 -35 -6 0 -8 13 -5 33 5
38 5 37 11 37 3 0 5 -16 5 -35z m340 31 c0 -3 -4 -8 -10 -11 -5 -3 -10 -1 -10
4 0 6 5 11 10 11 6 0 10 -2 10 -4z m2800 -6 c0 -5 -5 -10 -11 -10 -5 0 -7 5
-4 10 3 6 8 10 11 10 2 0 4 -4 4 -10z m374 -4 c-3 -9 -12 -12 -22 -9 -15 6 -9
11 25 22 1 1 0 -5 -3 -13z m-3404 -10 c0 -19 -17 -29 -25 -16 -3 5 -1 10 5 10
6 0 8 5 5 10 -3 6 -1 10 4 10 6 0 11 -6 11 -14z m810 0 c-19 -18 -112 -25
-117 -9 -3 8 14 13 54 16 32 2 62 4 68 5 5 1 3 -4 -5 -12z m-920 -82 c0 -8 -5
-12 -10 -9 -6 4 -8 11 -5 16 9 14 15 11 15 -7z m394 2 c-10 -8 -21 -12 -24
-10 -5 6 21 24 34 24 6 0 1 -6 -10 -14z m1981 4 c3 -5 1 -10 -4 -10 -6 0 -11
5 -11 10 0 6 2 10 4 10 3 0 8 -4 11 -10z m-185 -60 c0 -5 -5 -10 -11 -10 -5 0
-7 5 -4 10 3 6 8 10 11 10 2 0 4 -4 4 -10z m1230 -4 c0 -3 -134 -83 -177 -105
-12 -6 -29 -11 -37 -11 -26 0 -18 26 11 39 23 11 25 10 13 -3 -7 -9 -10 -16
-6 -16 16 0 127 62 122 68 -4 3 10 12 31 18 21 7 39 12 41 13 1 1 2 -1 2 -3z
m-1175 -16 c3 -6 -4 -10 -17 -10 -18 0 -20 2 -8 10 19 12 18 12 25 0z m-2248
-72 c-2 -13 -4 -3 -4 22 0 25 2 35 4 23 2 -13 2 -33 0 -45z m373 52 c0 -5 -2
-10 -4 -10 -3 0 -8 5 -11 10 -3 6 -1 10 4 10 6 0 11 -4 11 -10z m1750 -34 c0
-2 -7 -6 -15 -10 -8 -3 -15 -1 -15 4 0 6 7 10 15 10 8 0 15 -2 15 -4z m-1720
-26 c-20 -13 -40 -13 -40 0 0 6 12 10 28 10 21 0 24 -2 12 -10z m-100 -10 c0
-5 -4 -10 -10 -10 -5 0 -10 5 -10 10 0 6 5 10 10 10 6 0 10 -4 10 -10z m2765
-6 c-6 -1 -21 -5 -35 -8 -14 -3 -35 -15 -48 -26 -12 -11 -22 -18 -22 -14 0 4
-9 -1 -20 -11 -11 -10 -20 -15 -20 -11 0 12 -64 -26 -113 -67 -62 -53 -72 -42
-10 13 64 56 226 140 255 132 13 -3 18 -7 13 -8z m-3066 -144 c-5 -8 -8 20 -7
65 l1 80 7 -65 c4 -36 3 -72 -1 -80z m269 115 c-3 -3 -9 2 -12 12 -6 14 -5 15
5 6 7 -7 10 -15 7 -18z m-18 -12 c0 -10 -52 -34 -59 -28 -6 7 31 34 47 35 6 0
12 -3 12 -7z m48 -7 c-7 -8 -16 -12 -21 -9 -11 7 2 23 19 23 12 0 12 -2 2 -14z
m372 10 c0 -3 -4 -8 -10 -11 -5 -3 -10 -1 -10 4 0 6 5 11 10 11 6 0 10 -2 10
-4z m1790 -32 c-16 -18 -56 -41 -46 -26 3 6 0 12 -6 15 -10 3 19 16 61 26 2 1
-2 -6 -9 -15z m45 6 c3 -5 1 -10 -4 -10 -6 0 -11 5 -11 10 0 6 2 10 4 10 3 0
8 -4 11 -10z m500 -33 c-52 -30 -135 -65 -135 -58 0 11 142 82 149 75 3 -3 -3
-11 -14 -17z m229 -8 c-3 -5 -10 -7 -15 -3 -5 3 -7 10 -3 15 3 5 10 7 15 3 5
-3 7 -10 3 -15z m-64 7 c0 -2 -8 -10 -17 -17 -16 -13 -17 -12 -4 4 13 16 21
21 21 13z m-2744 -41 c-2 -5 -12 -9 -22 -8 -10 2 -32 0 -47 -3 -22 -5 -26 -9
-18 -17 9 -9 14 -9 19 -1 4 7 21 9 39 7 18 -3 30 -9 27 -14 -3 -5 -15 -7 -28
-3 -16 4 -31 -3 -54 -27 -22 -23 -36 -30 -49 -24 -10 4 -36 7 -59 6 -35 -2
-42 1 -52 24 -14 30 -16 29 73 46 33 6 76 14 95 18 47 10 81 8 76 -4z m2023 5
c4 0 8 -6 8 -14 0 -12 -4 -12 -24 1 -26 18 -31 28 -7 19 9 -3 19 -6 23 -6z
m641 -31 c-44 -39 -115 -93 -95 -72 19 21 130 113 135 112 3 0 -15 -18 -40
-40z m-675 1 c-3 -5 -14 -10 -23 -10 -15 0 -15 2 -2 10 20 13 33 13 25 0z
m-2418 -22 c-3 -8 -6 -5 -6 6 -1 11 2 17 5 13 3 -3 4 -12 1 -19z m49 -1 c10 4
12 0 8 -12 -4 -10 -1 -21 7 -25 7 -5 10 -12 6 -16 -11 -12 -47 27 -46 50 0 12
3 16 5 9 3 -7 12 -9 20 -6z m2039 7 c13 -5 14 -8 3 -15 -19 -13 -28 -11 -28 6
0 17 2 18 25 9z m323 -25 c-8 -5 -29 -7 -47 -6 -25 2 -28 4 -17 13 9 6 30 9
47 6 24 -3 28 -7 17 -13z m711 18 c-2 -1 -15 -11 -29 -22 l-25 -20 19 23 c11
12 24 22 29 22 6 0 8 -1 6 -3z m-2723 -22 c-23 -17 -36 -19 -36 -6 0 11 18 19
40 20 11 0 10 -3 -4 -14z m1809 5 c-3 -5 -11 -10 -16 -10 -6 0 -7 5 -4 10 3 6
11 10 16 10 6 0 7 -4 4 -10z m-2208 -22 c-3 -8 -6 -5 -6 6 -1 11 2 17 5 13 3
-3 4 -12 1 -19z m753 2 c0 -5 -7 -10 -16 -10 -8 0 -12 5 -9 10 3 6 10 10 16
10 5 0 9 -4 9 -10z m1295 0 c-3 -5 -12 -10 -18 -10 -7 0 -6 4 3 10 19 12 23
12 15 0z m-2004 -27 c10 -27 2 -113 -11 -113 -4 0 -6 25 -4 56 2 45 0 55 -12
50 -17 -7 -18 0 -1 19 16 19 16 19 28 -12z m735 -1 c15 -10 25 -40 15 -46 -4
-3 -18 8 -30 24 -21 29 -12 41 15 22z m2144 -38 c0 -3 -16 -21 -36 -40 -20
-19 -32 -34 -26 -34 6 0 14 5 17 10 3 6 13 10 21 10 11 0 14 -16 14 -70 0 -62
-2 -71 -24 -85 -16 -11 -41 -15 -72 -13 -45 3 -49 5 -55 34 -6 30 -4 33 42 53
26 12 53 29 61 38 12 15 11 15 -12 0 -13 -9 -31 -17 -40 -17 -10 1 -8 5 7 13
12 7 22 17 23 22 1 6 11 20 22 33 12 12 18 22 13 22 -10 0 27 29 38 30 4 0 7
-3 7 -6z m-2108 -59 c3 -25 0 -35 -9 -35 -8 0 -13 6 -12 13 3 25 -1 38 -11 32
-11 -7 -14 8 -3 18 16 17 31 4 35 -28z m2642 -50 c-4 -17 -10 -23 -16 -17 -6
6 -6 18 2 32 15 28 23 20 14 -15z m-2824 8 c0 -4 -12 -18 -27 -30 l-28 -23 27
6 c18 4 33 1 42 -9 13 -13 13 -16 -2 -29 -9 -8 -30 -20 -47 -28 l-30 -13 33
-7 c18 -4 36 -10 39 -13 10 -11 -6 -37 -19 -32 -7 3 -24 -4 -37 -14 l-24 -19
41 -7 c47 -8 60 -35 17 -35 -14 0 -25 5 -25 10 0 6 -11 10 -24 10 -51 0 -42
33 17 63 l28 15 -36 6 c-46 9 -41 25 16 53 38 19 41 22 19 24 -14 1 -32 2 -40
3 -19 1 -26 36 -7 36 8 0 22 9 32 20 18 20 35 26 35 13z m-593 -40 c-3 -10 -5
-4 -5 12 0 17 2 24 5 18 2 -7 2 -21 0 -30z m759 11 c-3 -9 -6 -18 -6 -20 0 -2
-7 -4 -15 -4 -18 0 -19 6 -2 25 16 19 31 19 23 -1z m-751 -43 c-3 -5 -1 -12 5
-16 12 -8 7 -48 -8 -53 -7 -2 -10 10 -7 35 4 44 3 43 11 43 3 0 3 -4 -1 -9z
m391 -28 c-9 -9 -189 -42 -195 -37 -9 8 9 15 75 28 79 16 131 20 120 9z m-256
-28 c-7 -8 -18 -15 -24 -15 -6 0 -2 7 8 15 25 19 32 19 16 0z m-80 -35 c0 -5
-5 -10 -12 -10 -6 0 -8 -3 -5 -6 4 -4 13 -1 21 6 9 6 21 10 27 8 7 -2 -2 -10
-20 -17 -35 -15 -45 -12 -35 13 7 17 24 22 24 6z m3160 -64 c0 -20 12 -20 103
3 67 16 30 -2 -51 -25 -74 -22 -102 -23 -72 -4 8 6 10 10 4 10 -6 0 -19 -9
-28 -19 -14 -16 -22 -18 -35 -9 -13 8 -38 6 -95 -6 -81 -18 -118 -15 -48 3 78
21 130 28 146 19 13 -7 19 -2 30 24 8 18 18 36 22 41 10 9 24 -12 24 -37z
m-2770 24 c0 -5 -4 -10 -10 -10 -5 0 -10 5 -10 10 0 6 5 10 10 10 6 0 10 -4
10 -10z m-441 -26 c2 -2 -8 -4 -22 -4 -18 0 -27 5 -27 15 0 13 4 14 23 4 12
-6 24 -13 26 -15z m2617 -42 c-14 -14 -14 -12 -3 24 10 33 13 35 15 15 2 -13
-3 -31 -12 -39z m-1766 40 c0 -9 -161 -36 -275 -47 -33 -4 -72 -9 -87 -11 -17
-3 -28 -1 -28 5 0 6 11 11 25 11 17 0 25 6 25 18 0 13 2 14 9 3 7 -11 26 -12
112 -2 57 6 118 15 134 20 38 12 85 13 85 3z m105 -1 c-15 -14 -95 -24 -95
-13 0 10 28 17 80 21 14 0 20 -3 15 -8z m455 -1 c0 -5 -5 -10 -11 -10 -5 0 -7
5 -4 10 3 6 8 10 11 10 2 0 4 -4 4 -10z m1170 -35 c10 -12 10 -15 -4 -15 -9 0
-16 7 -16 15 0 8 2 15 4 15 2 0 9 -7 16 -15z m-33 -17 c-3 -8 -6 -5 -6 6 -1
11 2 17 5 13 3 -3 4 -12 1 -19z m-1150 -80 c-3 -8 -6 -5 -6 6 -1 11 2 17 5 13
3 -3 4 -12 1 -19z m-167 -31 c10 -4 8 -6 -7 -6 -16 -1 -23 5 -23 17 0 10 3 13
8 6 4 -6 14 -14 22 -17z m112 1 c-7 -7 -12 -8 -12 -2 0 14 12 26 19 19 2 -3
-1 -11 -7 -17z m-290 -10 c-7 -7 -12 -8 -12 -2 0 14 12 26 19 19 2 -3 -1 -11
-7 -17z m348 12 c0 -5 -5 -10 -11 -10 -5 0 -7 5 -4 10 3 6 8 10 11 10 2 0 4
-4 4 -10z m-494 -30 c8 0 12 5 9 10 -3 6 -1 10 4 10 6 0 11 -4 11 -10 0 -5 11
-10 25 -10 14 0 25 6 25 13 0 8 4 7 10 -3 8 -12 11 -13 19 -1 5 8 11 9 15 3 7
-12 236 -4 253 10 7 5 13 4 15 -3 3 -9 88 -12 329 -14 179 -1 330 -5 337 -9 7
-4 16 -5 20 -2 16 10 312 15 312 6 0 -6 -42 -10 -97 -10 -54 -1 -129 -5 -166
-9 -41 -6 -81 -6 -100 0 -18 5 -70 9 -117 8 -86 -1 -148 -1 -505 0 -110 0
-255 -2 -322 -4 -77 -3 -123 -1 -123 5 0 6 4 10 10 10 5 0 7 8 4 18 -5 16 -5
16 6 0 6 -10 18 -18 26 -18z m-181 0 c3 -5 -1 -10 -10 -10 -9 0 -13 5 -10 10
3 6 8 10 10 10 2 0 7 -4 10 -10z m1645 0 c0 -5 -5 -10 -11 -10 -5 0 -7 5 -4
10 3 6 8 10 11 10 2 0 4 -4 4 -10z m178 -10 c-8 -12 -15 -15 -19 -9 -5 8 -8 8
-13 1 -4 -6 -13 -9 -21 -5 -25 9 -17 20 16 21 17 0 34 3 37 6 12 12 12 5 0
-14z m172 11 c0 -3 60 -6 132 -5 73 0 108 -1 78 -3 -30 -2 -60 -10 -65 -17 -6
-7 -19 -16 -30 -19 -25 -8 -150 -18 -270 -22 -49 -2 -97 -5 -105 -6 -8 -1 -26
-1 -40 0 l-25 2 25 11 c14 6 72 11 130 13 138 2 140 3 140 20 0 17 -16 20 -25
5 -4 -7 -12 -7 -25 0 -10 5 -31 10 -47 11 -27 1 -27 1 -4 8 30 8 131 10 131 2z
m350 -1 c0 -5 -4 -10 -10 -10 -5 0 -10 5 -10 10 0 6 5 10 10 10 6 0 10 -4 10
-10z m40 6 c0 -3 -4 -8 -10 -11 -5 -3 -10 -1 -10 4 0 6 5 11 10 11 6 0 10 -2
10 -4z m50 -6 c0 -5 -4 -10 -9 -10 -6 0 -13 5 -16 10 -3 6 1 10 9 10 9 0 16
-4 16 -10z m67 -6 c-3 -3 -12 -4 -19 -1 -8 3 -5 6 6 6 11 1 17 -2 13 -5z
m-2507 -24 c0 -5 -4 -10 -10 -10 -5 0 -10 5 -10 10 0 6 5 10 10 10 6 0 10 -4
10 -10z m1900 6 c0 -3 -4 -8 -10 -11 -5 -3 -10 -1 -10 4 0 6 5 11 10 11 6 0
10 -2 10 -4z m342 -34 c4 -12 -1 -18 -13 -18 -14 0 -17 5 -13 18 3 10 0 18 -6
18 -6 0 -8 5 -5 10 9 14 31 -3 37 -28z m-2082 18 c0 -5 -4 -10 -10 -10 -5 0
-10 5 -10 10 0 6 5 10 10 10 6 0 10 -4 10 -10z m120 0 c0 -5 -7 -10 -15 -10
-8 0 -15 5 -15 10 0 6 7 10 15 10 8 0 15 -4 15 -10z m125 -10 c4 -6 -5 -10
-19 -10 -14 0 -26 5 -26 10 0 6 9 10 19 10 11 0 23 -4 26 -10z m465 0 c0 -5
-2 -10 -4 -10 -3 0 -8 5 -11 10 -3 6 -1 10 4 10 6 0 11 -4 11 -10z m187 4 c-3
-3 -12 -4 -19 -1 -8 3 -5 6 6 6 11 1 17 -2 13 -5z m-1047 -11 c0 -5 -4 -15
-10 -23 -11 -18 -25 -7 -17 15 6 15 27 21 27 8z m220 -18 c6 -15 11 -46 12
-70 0 -25 5 -45 10 -45 4 0 8 -7 8 -15 0 -8 -4 -15 -9 -15 -10 0 -23 46 -27
95 -1 17 -6 40 -9 53 -10 30 3 28 15 -3z m435 15 c3 -6 -4 -10 -17 -10 -18 0
-20 2 -8 10 19 12 18 12 25 0z m75 0 c0 -5 -4 -10 -10 -10 -5 0 -10 5 -10 10
0 6 5 10 10 10 6 0 10 -4 10 -10z m-253 -6 c-3 -3 -12 -4 -19 -1 -8 3 -5 6 6
6 11 1 17 -2 13 -5z m90 0 c-3 -3 -12 -4 -19 -1 -8 3 -5 6 6 6 11 1 17 -2 13
-5z m1060 0 c-3 -3 -12 -4 -19 -1 -8 3 -5 6 6 6 11 1 17 -2 13 -5z m-1477 -14
c0 -5 -4 -10 -10 -10 -5 0 -10 5 -10 10 0 6 5 10 10 10 6 0 10 -4 10 -10z
m2105 -108 c6 -19 13 -22 31 -18 13 4 24 2 24 -4 0 -5 -42 -53 -93 -107 l-94
-97 -137 63 c-76 34 -153 65 -172 68 -33 5 -52 19 -41 29 2 3 29 -4 59 -14 49
-17 58 -18 98 -5 25 8 71 14 102 14 46 -1 61 3 77 20 l20 22 7 -27 c6 -27 25
-32 72 -20 22 6 23 11 22 83 -2 93 1 108 10 56 4 -22 10 -50 15 -63z m-2260
66 c-1 -13 -3 -38 -4 -55 -2 -56 -17 -36 -17 22 0 35 5 55 12 55 6 0 10 -10 9
-22z m155 -12 c0 -3 -4 -8 -10 -11 -5 -3 -10 -1 -10 4 0 6 5 11 10 11 6 0 10
-2 10 -4z m0 -35 c0 -6 -4 -13 -10 -16 -5 -3 -10 1 -10 9 0 9 5 16 10 16 6 0
10 -4 10 -9z m-160 -81 c0 -16 -4 -30 -8 -30 -5 0 -9 14 -9 30 0 17 4 30 9 30
4 0 8 -13 8 -30z m264 4 c5 -14 4 -15 -9 -4 -17 14 -19 20 -6 20 5 0 12 -7 15
-16z m236 -14 c12 -8 11 -10 -7 -10 -13 0 -23 5 -23 10 0 13 11 13 30 0z m100
0 c0 -5 -4 -10 -10 -10 -5 0 -10 5 -10 10 0 6 5 10 10 10 6 0 10 -4 10 -10z
m100 6 c0 -3 -4 -8 -10 -11 -5 -3 -10 -1 -10 4 0 6 5 11 10 11 6 0 10 -2 10
-4z m90 -6 c0 -5 -7 -7 -15 -4 -8 4 -15 8 -15 10 0 2 7 4 15 4 8 0 15 -4 15
-10z m120 6 c0 -3 -4 -8 -10 -11 -5 -3 -10 -1 -10 4 0 6 5 11 10 11 6 0 10 -2
10 -4z m50 -6 c0 -5 -2 -10 -4 -10 -3 0 -8 5 -11 10 -3 6 -1 10 4 10 6 0 11
-4 11 -10z m120 0 c0 -5 -4 -10 -10 -10 -5 0 -10 5 -10 10 0 6 5 10 10 10 6 0
10 -4 10 -10z m130 -10 c0 -5 -7 -10 -15 -10 -8 0 -15 5 -15 10 0 6 7 10 15
10 8 0 15 -4 15 -10z m65 0 c3 -5 1 -10 -4 -10 -6 0 -11 5 -11 10 0 6 2 10 4
10 3 0 8 -4 11 -10z m485 -10 c0 -5 -13 -10 -30 -10 -16 0 -30 5 -30 10 0 6
14 10 30 10 17 0 30 -4 30 -10z m-83 -6 c-3 -3 -12 -4 -19 -1 -8 3 -5 6 6 6
11 1 17 -2 13 -5z m-1677 -34 c0 -16 -5 -30 -10 -30 -6 0 -9 14 -8 30 1 17 6
30 10 30 4 0 8 -13 8 -30z m180 -10 c0 -5 -5 -10 -11 -10 -5 0 -7 5 -4 10 3 6
8 10 11 10 2 0 4 -4 4 -10z m-7 -103 c4 3 7 1 7 -5 0 -14 -26 -16 -35 -2 -3 5
-12 7 -20 3 -11 -4 -13 -1 -9 11 5 13 8 14 28 1 13 -8 26 -12 29 -8z m-173
-27 c0 -5 -5 -10 -11 -10 -5 0 -7 5 -4 10 3 6 8 10 11 10 2 0 4 -4 4 -10z m-3
-42 c-3 -8 -6 -5 -6 6 -1 11 2 17 5 13 3 -3 4 -12 1 -19z m3 -108 c0 -5 -5
-10 -11 -10 -5 0 -7 5 -4 10 3 6 8 10 11 10 2 0 4 -4 4 -10z m1940 -11 c0 -5
-19 -9 -42 -9 -38 1 -41 2 -25 14 18 14 67 10 67 -5z m-1780 1 c0 -5 -4 -10
-10 -10 -5 0 -10 5 -10 10 0 6 5 10 10 10 6 0 10 -4 10 -10z m80 0 c0 -5 -4
-10 -10 -10 -5 0 -10 5 -10 10 0 6 5 10 10 10 6 0 10 -4 10 -10z m130 0 c0 -5
-4 -10 -10 -10 -5 0 -10 5 -10 10 0 6 5 10 10 10 6 0 10 -4 10 -10z m195 0 c3
-6 -3 -10 -14 -10 -12 0 -21 5 -21 10 0 6 6 10 14 10 8 0 18 -4 21 -10z m105
0 c0 -5 -7 -10 -15 -10 -8 0 -15 5 -15 10 0 6 7 10 15 10 8 0 15 -4 15 -10z
m70 0 c0 -5 -5 -10 -11 -10 -5 0 -7 5 -4 10 3 6 8 10 11 10 2 0 4 -4 4 -10z
m600 0 c0 -5 -5 -10 -11 -10 -5 0 -7 5 -4 10 3 6 8 10 11 10 2 0 4 -4 4 -10z
m750 2 c0 -4 -9 -8 -20 -9 -11 -1 -20 2 -20 8 0 5 9 9 20 9 11 0 20 -4 20 -8z
m70 4 c0 -3 -4 -8 -10 -11 -5 -3 -10 -1 -10 4 0 6 5 11 10 11 6 0 10 -2 10 -4z
m-963 -12 c-3 -3 -12 -4 -19 -1 -8 3 -5 6 6 6 11 1 17 -2 13 -5z"/>
<path d="M1720 3070 c0 -5 5 -10 11 -10 5 0 7 5 4 10 -3 6 -8 10 -11 10 -2 0
-4 -4 -4 -10z"/>
<path d="M2970 3050 c-9 -6 -10 -10 -3 -10 6 0 15 5 18 10 8 12 4 12 -15 0z"/>
<path d="M1760 2780 c0 -5 7 -7 15 -4 8 4 15 8 15 10 0 2 -7 4 -15 4 -8 0 -15
-4 -15 -10z"/>
<path d="M2040 2416 c0 -33 4 -44 15 -42 8 1 18 6 22 11 4 4 2 5 -4 1 -16 -9
-16 -5 -3 28 8 21 6 27 -10 36 -19 10 -20 7 -20 -34z"/>
<path d="M1671 1894 c0 -11 3 -14 6 -6 3 7 2 16 -1 19 -3 4 -6 -2 -5 -13z"/>
<path d="M1672 1830 c0 -19 2 -27 5 -17 2 9 2 25 0 35 -3 9 -5 1 -5 -18z"/>
<path d="M638 2553 c7 -3 16 -2 19 1 4 3 -2 6 -13 5 -11 0 -14 -3 -6 -6z"/>
<path d="M519 1773 c-13 -16 -12 -17 4 -4 9 7 17 15 17 17 0 8 -8 3 -21 -13z"/>
<path d="M713 1683 c12 -3 16 -10 12 -21 -5 -13 -3 -14 6 -5 14 14 3 33 -19
32 -15 -1 -14 -2 1 -6z"/>
<path d="M2890 649 c0 -5 -4 -8 -9 -4 -5 3 -12 1 -16 -5 -7 -11 5 -13 29 -4
18 7 22 24 6 24 -5 0 -10 -5 -10 -11z"/>
<path d="M2979 396 c-2 -2 -24 -5 -49 -7 -25 -2 -55 -9 -67 -17 -15 -9 -23
-10 -23 -3 0 6 -6 11 -12 11 -16 -1 30 -40 46 -40 7 0 39 -14 71 -32 39 -21
60 -28 63 -20 2 7 10 12 17 12 8 0 19 9 25 20 6 11 8 20 4 20 -3 0 -2 6 4 13
8 9 4 15 -14 24 -20 9 -24 9 -25 -5 0 -13 -3 -11 -11 6 -11 21 -20 27 -29 18z"/>
<path d="M2788 2283 c7 -3 16 -2 19 1 4 3 -2 6 -13 5 -11 0 -14 -3 -6 -6z"/>
<path d="M2712 2258 c-21 -21 -13 -28 27 -28 30 0 40 4 44 20 4 17 0 20 -27
20 -18 0 -37 -5 -44 -12z"/>
<path d="M2785 2160 c-1 -33 3 -54 7 -47 4 6 7 -12 6 -42 0 -29 3 -55 7 -59 4
-4 5 37 3 91 -5 109 -23 152 -23 57z"/>
<path d="M2702 2100 c0 -14 2 -19 5 -12 2 6 2 18 0 25 -3 6 -5 1 -5 -13z"/>
<path d="M2812 1980 c0 -14 2 -19 5 -12 2 6 2 18 0 25 -3 6 -5 1 -5 -13z"/>
<path d="M2813 1915 c-3 -9 -3 -18 -1 -21 3 -3 8 4 11 16 6 23 -1 27 -10 5z"/>
<path d="M2690 1901 c0 -5 5 -13 10 -16 6 -3 10 -2 10 4 0 5 -4 13 -10 16 -5
3 -10 2 -10 -4z"/>
<path d="M2692 1830 c0 -14 2 -19 5 -12 2 6 2 18 0 25 -3 6 -5 1 -5 -13z"/>
<path d="M2697 1723 c-4 -3 -7 -13 -7 -22 0 -12 3 -11 13 4 9 11 19 15 27 10
9 -5 11 -4 6 3 -8 13 -29 16 -39 5z"/>
<path d="M3005 1603 c-16 -2 -63 -10 -103 -19 -40 -9 -79 -14 -85 -11 -7 2
-18 -2 -25 -9 -17 -18 -9 -18 90 6 46 11 97 20 115 20 17 0 35 5 38 10 3 6 5
9 3 9 -2 -1 -16 -4 -33 -6z"/>
<path d="M2508 1553 c7 -3 16 -2 19 1 4 3 -2 6 -13 5 -11 0 -14 -3 -6 -6z"/>
<path d="M2670 1549 c0 -5 5 -7 10 -4 6 3 10 8 10 11 0 2 -4 4 -10 4 -5 0 -10
-5 -10 -11z"/>
<path d="M2718 1553 c7 -3 16 -2 19 1 4 3 -2 6 -13 5 -11 0 -14 -3 -6 -6z"/>
<path d="M2435 1540 c-8 -13 5 -13 25 0 13 8 13 10 -2 10 -9 0 -20 -4 -23 -10z"/>
<path d="M3456 1495 c-22 -13 -42 -22 -46 -20 -3 2 -19 -7 -36 -20 -16 -13
-24 -24 -17 -25 12 0 143 79 143 86 0 6 -2 5 -44 -21z"/>
<path d="M2800 1500 c-13 -8 -12 -10 3 -10 9 0 17 5 17 10 0 12 -1 12 -20 0z"/>
<path d="M2711 1471 c-7 -5 -11 -15 -9 -22 3 -10 8 -7 17 9 13 24 12 26 -8 13z"/>
<path d="M2013 1420 c2 -8 16 -16 33 -17 25 -1 26 0 4 4 -14 3 -29 10 -33 17
-6 7 -7 6 -4 -4z"/>
<path d="M2835 783 c-18 -14 -18 -15 -1 -9 14 5 17 2 12 -9 -3 -8 -1 -15 3
-15 13 0 23 32 14 41 -4 4 -17 1 -28 -8z"/>
</g>
</svg>
